# xmcd
# 
# Track frame offsets:
#	150
#	11220
#	24317
#	37305
#	51845
#	63397
#	76120
#	89472
#	105485
#	120895
#	131987
#	147640
#	165222
#	178740
#	194247
#	209525
#	225559
#	240810
#
# Disc length: 3486 seconds
#
# Revision: 1
# Processed by: cddbd v1.4PL0 Copyright (c) Steve Scherf et al.
# Submitted via: Audio-CD-Archiv 2.10.446
#
DISCID=f60d9c12
DTITLE=Legends Of Zydeco - The Old School Strikes Back
DYEAR=1900
DGENRE=country
TTITLE0=Boozoo Chavis - Boozoo That's Who
TTITLE1=Boozoo Chavis - Deacon Jones
TTITLE2=Boozoo Chavis - Blues All Around My Bed
TTITLE3=Boozoo Chavis - Leona Had A Party
TTITLE4=Boozoo Chavis - Dog Hill
TTITLE5=Boozoo Chavis - Big Leg Woman
TTITLE6=Boozoo Chavis - Grand Mary's Two Step
TTITLE7=Boozoo Chavis - Tell Me What's The Matter
TTITLE8=Boozoo Chavis - Johnny Billy Goat
TTITLE9=John Delafose - Loan Me Your Handkerchief
TTITLE10=John Delafose - Outside Woman
TTITLE11=John Delafose - Morning Train
TTITLE12=John Delafose - Blues At Midnight
TTITLE13=John Delafose - Mon Coeur Fait Mal
TTITLE14=John Delafose - Joe Simien Special
TTITLE15=John Delafose - John's Lonesome Waltz
TTITLE16=John Delafose - Co-Fe
TTITLE17=John and Geno Delafose - Ma Femme M'a Quitte
EXTD=
EXTT0=
EXTT1=
EXTT2=
EXTT3=
EXTT4=
EXTT5=
EXTT6=
EXTT7=
EXTT8=
EXTT9=
EXTT10=
EXTT11=
EXTT12=
EXTT13=
EXTT14=
EXTT15=
EXTT16=
EXTT17=
PLAYORDER=
